<svg fill="none" height="28" viewBox="0 0 25 28" width="25" xmlns="http://www.w3.org/2000/svg"><g clip-rule="evenodd" fill="#fff" fill-rule="evenodd"><path d="m12.6614 2.24887 9.9416 6.17866v11.25297l-10.2227 6.0407-9.85979-6.0461v-11.65799zm-9.14089 6.92784v9.36529l8.20649-4.5972zm8.44739 5.77939-7.95912 4.4586 7.82012 4.7954zm.8599 9.3391 8.2862-4.8963-8.1416-4.7305zm.917-10.3345 7.8582 4.5657v-8.96772zm7.375-5.27757-8.1259 4.55207.1429-9.5135zm-8.9828-4.98552-.1389 9.24819-7.9744-4.63326z" fill-opacity=".3"/><path d="m6.54541 6.3417c.2042.36038.07759.81807-.2828 1.02227l-1.8084 1.02467 2.11089 1.16128c.36292.19966.49527.65568.29561 1.01868-.19965.3629-.65571.4952-1.01863.2956l-2.17628-1.19729v2.35519c0 .4143-.33578.75-.75.75-.41421 0-.75-.3357-.75-.75v-4.06087l3.35734-1.90233c.36039-.20419.81807-.07758 1.02227.2828z"/><path d="m18.414 21.5934c-.1873-.3695-.0397-.8208.3297-1.0081l1.9328-.9801-1.9844-1.2116c-.3535-.2159-.4652-.6774-.2493-1.031.2158-.3535.6774-.4651 1.0309-.2493l1.9914 1.2159v-2.2872c0-.4142.3358-.75.75-.75s.75.3358.75.75v4.0845l-3.543 1.7966c-.3694.1873-.8208.0397-1.0081-.3297z"/><path d="m16.2916 5.0553c-.2126.35546-.6732.47121-1.0286.25855l-1.9252-1.1518-.0585 2.3835c-.0102.41409-.3541.74153-.7682.73136s-.7415-.35409-.7314-.76818l.0573-2.33251-1.98074 1.14359c-.35872.20711-.81741.0842-1.02452-.27452-.2071-.35872-.0842-.81741.27452-1.02452l3.52014-2.03233 3.4067 2.0382c.3554.21266.4712.67321.2585 1.02866z"/><path d="m8.89356 22.8777c.22627-.3469.69096-.4448 1.03791-.2185l1.78193 1.1621v-2.2288c0-.4142.3358-.75.75-.75s.75.3358.75.75v2.3143l2.0133-1.1624c.3587-.2071.8174-.0842 1.0245.2745.2072.3587.0842.8174-.2745 1.0245l-3.5372 2.0422-3.32742-2.17c-.34695-.2262-.44479-.6909-.21852-1.0379z"/><path d="m3.05223 15.3154c.41422 0 .75.3358.75.75v2.233l1.89875-1.1275c.35615-.2115.81632-.0943 1.02782.2619.21149.3561.09423.8163-.26192 1.0278l-1.95116 1.1587 1.87002 1.1215c.35522.2131.47048.6737.25743 1.029-.21304.3552-.67372.4705-1.02894.2574l-3.312-1.9864v-3.9754c0-.4142.33579-.75.75-.75z"/><path d="m22.0787 12.7488c-.4142 0-.75-.3358-.75-.75v-2.00472l-1.9014 1.11862c-.357.21-.8167.0909-1.0267-.2661-.2101-.357-.0909-.8167.2661-1.02675l1.9706-1.15938-1.9903-1.25502c-.3504-.22093-.4553-.68406-.2344-1.03444.2209-.35037.6841-.45531 1.0344-.23438l3.3817 2.1323v3.72987c0 .4142-.3358.75-.75.75z"/><path d="m15.9088 12.0421c.2098.3571.0904.8167-.2667 1.0266l-2.3375 1.3734v2.4814c0 .4143-.3358.75-.75.75s-.75-.3357-.75-.75v-2.4841l-2.30715-1.3726c-.35598-.2118-.47288-.672-.2611-1.028.21179-.356.67205-.4729 1.02805-.2611l2.2926 1.3639 2.3252-1.3662c.3571-.2099.8167-.0904 1.0266.2667z"/></g></svg>